<svg width="14" height="13" viewBox="0 0 14 13" fill="none" xmlns="http://www.w3.org/2000/svg">
<path d="M3.36447 10.1111H8.42003V8.66667H3.36447V10.1111ZM3.36447 7.22222H10.5867V5.77778H3.36447V7.22222ZM3.36447 4.33333H10.5867V2.88889H3.36447V4.33333ZM1.92003 13C1.52281 13 1.18288 12.8587 0.900253 12.5761C0.617623 12.2934 0.476067 11.9533 0.475586 11.5556V1.44444C0.475586 1.04722 0.617142 0.707296 0.900253 0.424667C1.18336 0.142037 1.52329 0.000481481 1.92003 0H12.0311C12.4284 0 12.7685 0.141556 13.0516 0.424667C13.3348 0.707778 13.4761 1.0477 13.4756 1.44444V11.5556C13.4756 11.9528 13.3343 12.2929 13.0516 12.5761C12.769 12.8592 12.4288 13.0005 12.0311 13H1.92003ZM1.92003 11.5556H12.0311V1.44444H1.92003V11.5556Z" fill="#2C2C2C"/>
</svg>
