<svg width="18" height="18" viewBox="0 0 18 18" fill="none" xmlns="http://www.w3.org/2000/svg">
<path d="M4.00085 14.003H11.0023V12.0025H4.00085V14.003ZM4.00085 10.0021H14.003V8.00169H4.00085V10.0021ZM4.00085 6.00127H14.003V4.00085H4.00085V6.00127ZM2.00042 18.0038C1.45031 18.0038 0.979541 17.8081 0.588124 17.4167C0.196708 17.0253 0.000666808 16.5542 0 16.0034V2.00042C0 1.45031 0.196042 0.979541 0.588124 0.588124C0.980207 0.196708 1.45097 0.000666808 2.00042 0H16.0034C16.5535 0 17.0246 0.196042 17.4167 0.588124C17.8088 0.980207 18.0045 1.45097 18.0038 2.00042V16.0034C18.0038 16.5535 17.8081 17.0246 17.4167 17.4167C17.0253 17.8088 16.5542 18.0045 16.0034 18.0038H2.00042ZM2.00042 16.0034H16.0034V2.00042H2.00042V16.0034Z" fill="#1186F3"/>
</svg>
