<svg width="28" height="25" viewBox="0 0 28 25" fill="none" xmlns="http://www.w3.org/2000/svg">
<path d="M25.2 2.77778H20.762L18.2 0H9.8L7.238 2.77778H2.8C2.05739 2.77778 1.3452 3.07044 0.820101 3.59137C0.294999 4.1123 0 4.81884 0 5.55556V22.2222C0 22.9589 0.294999 23.6655 0.820101 24.1864C1.3452 24.7073 2.05739 25 2.8 25H25.2C25.9426 25 26.6548 24.7073 27.1799 24.1864C27.705 23.6655 28 22.9589 28 22.2222V5.55556C28 4.81884 27.705 4.1123 27.1799 3.59137C26.6548 3.07044 25.9426 2.77778 25.2 2.77778ZM25.2 22.2222H2.8V5.55556H8.47L11.032 2.77778H16.968L19.6 5.55556H25.2V22.2222ZM14 20.8333C12.488 20.8333 11.004 20.3472 9.8 19.4444L11.816 17.4444C12.474 17.8472 13.23 18.0556 14 18.0556C15.1139 18.0556 16.1822 17.6166 16.9698 16.8352C17.7575 16.0538 18.2 14.994 18.2 13.8889C18.2 12.7838 17.7575 11.724 16.9698 10.9426C16.1822 10.1612 15.1139 9.72222 14 9.72222C12.236 9.72222 10.64 10.8333 10.052 12.5H12.6L8.4 16.6667L4.2 12.5H7.14C7.32317 11.6059 7.68223 10.7565 8.19665 10.0002C8.71106 9.24394 9.37073 8.59572 10.1379 8.09262C10.9051 7.58952 11.7647 7.24142 12.6677 7.06824C13.5706 6.89506 14.4991 6.90019 15.4 7.08333C17.1012 7.42603 18.6134 8.38361 19.643 9.77018C20.6725 11.1567 21.1461 12.8734 20.9716 14.5868C20.7971 16.3002 19.9871 17.8882 18.6989 19.0425C17.4106 20.1968 15.7359 20.8351 14 20.8333Z" fill="white"/>
</svg>
