<svg width="22" height="20" viewBox="0 0 22 20" fill="none" xmlns="http://www.w3.org/2000/svg">
<path d="M1 11.364C1 8.29905 1 6.76705 1.749 5.66705C2.07457 5.18904 2.49118 4.77991 2.975 4.46305C3.695 3.99005 4.597 3.82105 5.978 3.76105C6.637 3.76105 7.204 3.27105 7.333 2.63605C7.43158 2.17092 7.68773 1.75408 8.05815 1.456C8.42857 1.15791 8.89055 0.996855 9.366 1.00005H12.634C13.622 1.00005 14.473 1.68505 14.667 2.63605C14.796 3.27105 15.363 3.76105 16.022 3.76105C17.402 3.82105 18.304 3.99105 19.025 4.46305C19.51 4.78105 19.927 5.19005 20.251 5.66705C21 6.76705 21 8.29905 21 11.364C21 14.429 21 15.96 20.251 17.061C19.9254 17.5391 19.5088 17.9482 19.025 18.265C17.904 19 16.343 19 13.222 19H8.778C5.657 19 4.096 19 2.975 18.265C2.49144 17.9478 2.07517 17.5383 1.75 17.06C1.53274 16.7364 1.37274 16.3779 1.277 16M18 8.00005H17M14 11C14 12.6569 12.6569 14 11 14C9.34315 14 8 12.6569 8 11C8 9.34319 9.34315 8.00005 11 8.00005C12.6569 8.00005 14 9.34319 14 11Z" stroke="#1186F3" stroke-width="2" stroke-linecap="round"/>
</svg>
