<svg width="64" height="61" viewBox="0 0 64 61" fill="none" xmlns="http://www.w3.org/2000/svg">
<g clip-path="url(#clip0_829_665)">
<path d="M22.1538 32.939C22.1538 33.6629 21.9373 34.3705 21.5316 34.9724C21.1259 35.5743 20.5492 36.0435 19.8745 36.3205C19.1998 36.5975 18.4574 36.67 17.7412 36.5288C17.025 36.3875 16.3671 36.0389 15.8507 35.5271C15.3343 35.0152 14.9826 34.363 14.8402 33.653C14.6977 32.943 14.7708 32.2071 15.0503 31.5383C15.3298 30.8695 15.803 30.2978 16.4102 29.8957C17.0174 29.4935 17.7313 29.2788 18.4615 29.2788C19.4408 29.2788 20.38 29.6644 21.0724 30.3509C21.7648 31.0373 22.1538 31.9682 22.1538 32.939ZM45.5385 29.2788C44.8082 29.2788 44.0943 29.4935 43.4871 29.8957C42.8799 30.2978 42.4067 30.8695 42.1272 31.5383C41.8478 32.2071 41.7746 32.943 41.9171 33.653C42.0596 34.363 42.4112 35.0152 42.9276 35.5271C43.444 36.0389 44.1019 36.3875 44.8181 36.5288C45.5344 36.67 46.2768 36.5975 46.9514 36.3205C47.6261 36.0435 48.2028 35.5743 48.6085 34.9724C49.0142 34.3705 49.2308 33.6629 49.2308 32.939C49.2308 31.9682 48.8418 31.0373 48.1493 30.3509C47.4569 29.6644 46.5177 29.2788 45.5385 29.2788ZM64 4.87792V31.7189C64 47.8632 49.6462 61 32 61C14.3538 61 0 47.8632 0 31.7189V4.87792C0.000451035 3.91304 0.289429 2.96995 0.830414 2.16782C1.3714 1.3657 2.14011 0.74054 3.03941 0.371357C3.9387 0.00217383 4.92821 -0.0944658 5.88289 0.09365C6.83758 0.281766 7.71458 0.746194 8.40308 1.42824C8.44615 1.47094 8.48308 1.5106 8.52 1.5533L13.8462 7.62302C19.2921 4.2407 25.5888 2.44686 32.0154 2.44686C38.442 2.44686 44.7386 4.2407 50.1846 7.62302L55.48 1.5533C55.5169 1.5106 55.5538 1.47094 55.5969 1.42824C56.2854 0.746194 57.1624 0.281766 58.1171 0.09365C59.0718 -0.0944658 60.0613 0.00217383 60.9606 0.371357C61.8599 0.74054 62.6286 1.3657 63.1696 2.16782C63.7106 2.96995 63.9996 3.91304 64 4.87792ZM59.0769 4.87792L52.4431 12.4422C52.0373 12.9076 51.4691 13.2038 50.8524 13.2717C50.2357 13.3396 49.6158 13.174 49.1169 12.8082C47.6151 11.7077 46.0036 10.7623 44.3077 9.98686V17.0784C44.3077 17.7255 44.0484 18.3462 43.5867 18.8038C43.1251 19.2614 42.499 19.5185 41.8462 19.5185C41.1933 19.5185 40.5672 19.2614 40.1056 18.8038C39.644 18.3462 39.3846 17.7255 39.3846 17.0784V8.2483C37.7697 7.83647 36.123 7.55896 34.4615 7.41867V17.0784C34.4615 17.7255 34.2022 18.3462 33.7406 18.8038C33.2789 19.2614 32.6528 19.5185 32 19.5185C31.3472 19.5185 30.7211 19.2614 30.2594 18.8038C29.7978 18.3462 29.5385 17.7255 29.5385 17.0784V7.41867C27.877 7.55896 26.2303 7.83647 24.6154 8.2483V17.0784C24.6154 17.7255 24.356 18.3462 23.8944 18.8038C23.4328 19.2614 22.8067 19.5185 22.1538 19.5185C21.501 19.5185 20.8749 19.2614 20.4133 18.8038C19.9516 18.3462 19.6923 17.7255 19.6923 17.0784V9.98686C17.9964 10.7623 16.3849 11.7077 14.8831 12.8082C14.3853 13.1751 13.7661 13.3422 13.1494 13.276C12.5327 13.2099 11.964 12.9153 11.5569 12.4514L4.92308 4.87792V31.7189C4.92308 44.4257 15.7569 54.8998 29.5385 56.0192V49.8091L25.3354 45.6427C25.1069 45.416 24.9257 45.1469 24.8021 44.8507C24.6785 44.5546 24.615 44.2372 24.6151 43.9168C24.6152 43.5963 24.6791 43.279 24.8029 42.983C24.9268 42.6869 25.1082 42.418 25.3369 42.1915C25.7988 41.734 26.4251 41.4772 27.078 41.4775C27.4013 41.4776 27.7214 41.5409 28.02 41.6636C28.3187 41.7864 28.59 41.9663 28.8185 42.193L32 45.3468L35.1815 42.193C35.41 41.9663 35.6814 41.7864 35.98 41.6636C36.2786 41.5409 36.5987 41.4776 36.922 41.4775C37.2453 41.4773 37.5654 41.5403 37.8642 41.6628C38.1629 41.7853 38.4344 41.965 38.6631 42.1915C38.8918 42.418 39.0732 42.6869 39.1971 42.983C39.3209 43.279 39.3848 43.5963 39.3849 43.9168C39.385 44.2372 39.3215 44.5546 39.1979 44.8507C39.0743 45.1469 38.8931 45.416 38.6646 45.6427L34.4615 49.8091V56.0192C48.2431 54.8937 59.0769 44.4287 59.0769 31.7189V4.87792Z" fill="#002C49"/>
</g>
<defs>
<clipPath id="clip0_829_665">
<rect width="64" height="61" fill="white"/>
</clipPath>
</defs>
</svg>
