<svg width="64" height="62" viewBox="0 0 64 62" fill="none" xmlns="http://www.w3.org/2000/svg">
<path d="M22.1538 33.4789C22.1538 34.2147 21.9373 34.934 21.5316 35.5457C21.1259 36.1575 20.5492 36.6343 19.8745 36.9159C19.1998 37.1975 18.4574 37.2711 17.7412 37.1276C17.025 36.9841 16.3671 36.6297 15.8507 36.1095C15.3343 35.5892 14.9826 34.9263 14.8402 34.2047C14.6977 33.4831 14.7708 32.7351 15.0503 32.0553C15.3298 31.3755 15.803 30.7945 16.4102 30.3858C17.0174 29.977 17.7313 29.7588 18.4615 29.7588C19.4408 29.7588 20.38 30.1507 21.0724 30.8484C21.7648 31.5461 22.1538 32.4923 22.1538 33.4789ZM45.5385 29.7588C44.8082 29.7588 44.0943 29.977 43.4871 30.3858C42.8799 30.7945 42.4067 31.3755 42.1272 32.0553C41.8478 32.7351 41.7746 33.4831 41.9171 34.2047C42.0596 34.9263 42.4112 35.5892 42.9276 36.1095C43.444 36.6297 44.1019 36.9841 44.8181 37.1276C45.5344 37.2711 46.2768 37.1975 46.9514 36.9159C47.6261 36.6343 48.2028 36.1575 48.6085 35.5457C49.0142 34.934 49.2308 34.2147 49.2308 33.4789C49.2308 32.4923 48.8418 31.5461 48.1493 30.8484C47.4569 30.1507 46.5177 29.7588 45.5385 29.7588ZM64 4.95789V32.2389C64 48.6478 49.6462 62 32 62C14.3538 62 0 48.6478 0 32.2389V4.95789C0.000451035 3.97719 0.289429 3.01864 0.830414 2.20336C1.3714 1.38808 2.14011 0.75268 3.03941 0.377445C3.9387 0.00220947 4.92821 -0.0960145 5.88289 0.0951852C6.83758 0.286385 7.71458 0.758426 8.40308 1.45166C8.44615 1.49506 8.48308 1.53536 8.52 1.57876L13.8462 7.74799C19.2921 4.31022 25.5888 2.48697 32.0154 2.48697C38.442 2.48697 44.7386 4.31022 50.1846 7.74799L55.48 1.57876C55.5169 1.53536 55.5538 1.49506 55.5969 1.45166C56.2854 0.758426 57.1624 0.286385 58.1171 0.0951852C59.0718 -0.0960145 60.0613 0.00220947 60.9606 0.377445C61.8599 0.75268 62.6286 1.38808 63.1696 2.20336C63.7106 3.01864 63.9996 3.97719 64 4.95789ZM59.0769 4.95789L52.4431 12.6462C52.0373 13.1192 51.4691 13.4203 50.8524 13.4893C50.2357 13.5583 49.6158 13.39 49.1169 13.0182C47.6151 11.8996 46.0036 10.9387 44.3077 10.1506V17.3583C44.3077 18.0161 44.0484 18.6469 43.5867 19.112C43.1251 19.5771 42.499 19.8384 41.8462 19.8384C41.1933 19.8384 40.5672 19.5771 40.1056 19.112C39.644 18.6469 39.3846 18.0161 39.3846 17.3583V8.38351C37.7697 7.96494 36.123 7.68288 34.4615 7.54028V17.3583C34.4615 18.0161 34.2022 18.6469 33.7406 19.112C33.2789 19.5771 32.6528 19.8384 32 19.8384C31.3472 19.8384 30.7211 19.5771 30.2594 19.112C29.7978 18.6469 29.5385 18.0161 29.5385 17.3583V7.54028C27.877 7.68288 26.2303 7.96494 24.6154 8.38351V17.3583C24.6154 18.0161 24.356 18.6469 23.8944 19.112C23.4328 19.5771 22.8067 19.8384 22.1538 19.8384C21.501 19.8384 20.8749 19.5771 20.4133 19.112C19.9516 18.6469 19.6923 18.0161 19.6923 17.3583V10.1506C17.9964 10.9387 16.3849 11.8996 14.8831 13.0182C14.3853 13.3911 13.7661 13.5609 13.1494 13.4937C12.5327 13.4264 11.964 13.1271 11.5569 12.6555L4.92308 4.95789V32.2389C4.92308 45.154 15.7569 55.7998 29.5385 56.9375V50.6257L25.3354 46.3909C25.1069 46.1605 24.9257 45.887 24.8021 45.586C24.6785 45.285 24.615 44.9624 24.6151 44.6367C24.6152 44.311 24.6791 43.9885 24.8029 43.6876C24.9268 43.3867 25.1082 43.1134 25.3369 42.8831C25.7988 42.4182 26.4251 42.1571 27.078 42.1574C27.4013 42.1576 27.7214 42.2219 28.02 42.3467C28.3187 42.4714 28.59 42.6543 28.8185 42.8847L32 46.0902L35.1815 42.8847C35.41 42.6543 35.6814 42.4714 35.98 42.3467C36.2786 42.2219 36.5987 42.1576 36.922 42.1574C37.2453 42.1573 37.5654 42.2213 37.8642 42.3458C38.1629 42.4703 38.4344 42.6529 38.6631 42.8831C38.8918 43.1134 39.0732 43.3867 39.1971 43.6876C39.3209 43.9885 39.3848 44.311 39.3849 44.6367C39.385 44.9624 39.3215 45.285 39.1979 45.586C39.0743 45.887 38.8931 46.1605 38.6646 46.3909L34.4615 50.6257V56.9375C48.2431 55.7936 59.0769 45.1571 59.0769 32.2389V4.95789Z" fill="#0091F3" fill-opacity="0.7"/>
</svg>
