<svg width="394" height="396" viewBox="0 0 394 396" fill="none" xmlns="http://www.w3.org/2000/svg">
<rect x="1" y="3" width="391" height="391" rx="195.5" fill="white"/>
<path d="M370.725 291.425C337.522 353.669 272.185 396.008 197 396.008C121.814 396.008 56.4723 353.671 23.2697 291.425C30.5144 300.765 43.8266 303.456 54.2347 297.018L58.4844 294.38C58.4945 294.382 58.5075 294.388 58.5188 294.391C58.6885 294.438 58.9312 294.537 59.1906 294.72C59.4481 294.903 59.6757 295.136 59.851 295.39C74.1108 316.036 94.8623 330.931 119.289 340.573C142.352 353.299 168.833 360.545 197 360.545C225.165 360.545 251.644 353.298 274.706 340.573C299.134 330.931 319.889 316.037 334.149 295.39C334.324 295.135 334.552 294.903 334.809 294.72C335.069 294.536 335.311 294.437 335.481 294.391C335.491 294.389 335.501 294.382 335.51 294.38L339.765 297.018C350.173 303.456 363.48 300.763 370.725 291.425ZM197 0C305.8 0 394 88.6496 394 198.004C394 228.54 387.114 257.458 374.83 283.286C377.031 275.507 375.108 267.149 369.857 261.15C377.757 258.667 384.088 252.092 385.926 243.447C388.77 230.066 379.805 217.043 366.343 215.003L357.958 213.733C358.453 208.557 358.716 203.311 358.716 198.004C358.716 179.674 355.69 162.055 350.125 145.617C353.721 122.619 351.416 102.664 347.518 87.3079C340.669 60.3351 312.37 43.2592 285.048 55.1691C283.048 56.041 281.075 56.9852 279.116 57.9628C255.046 43.6739 226.979 35.4634 197 35.4634C167.017 35.4634 138.944 43.6709 114.873 57.9628C112.915 56.986 110.945 56.0403 108.946 55.1691C81.625 43.2622 53.33 60.3362 46.482 87.3079C42.5841 102.664 40.273 122.619 43.869 145.617C38.3042 162.054 35.2836 179.675 35.2836 198.004C35.2836 203.311 35.5414 208.557 36.0359 213.733L27.6572 215.003C14.195 217.043 5.22981 230.065 8.07435 243.447C9.91192 252.09 16.2403 258.666 24.1369 261.15C18.8883 267.149 16.9633 275.507 19.1636 283.286C6.8813 257.458 0 228.54 0 198.004C0 88.6496 88.2001 0 197 0ZM33.6182 280.186C33.5153 279.933 33.4267 279.676 33.3483 279.418L33.6182 280.186ZM33.1243 278.512C33.0724 278.243 33.0304 277.975 33.0037 277.704C32.9485 277.147 32.9439 276.588 32.9922 276.036C32.9203 276.856 32.9663 277.688 33.1243 278.512ZM29.9371 247.367C30.4872 247.444 31.0496 247.476 31.6197 247.447L30.8157 247.453C30.5195 247.441 30.227 247.407 29.9371 247.367ZM362.369 247.447C362.355 247.446 362.342 247.448 362.329 247.447L361.513 247.361C361.8 247.403 362.085 247.433 362.369 247.447ZM22.437 236.659C22.3145 237.25 22.253 237.859 22.2532 238.478C22.2532 238.169 22.2681 237.863 22.2992 237.56C22.3307 237.254 22.375 236.956 22.437 236.659ZM68.9365 75.8562C68.98 75.8095 69.0241 75.764 69.0682 75.7173C69.1511 75.631 69.2376 75.5489 69.3211 75.4638C69.1929 75.5944 69.0623 75.7226 68.9365 75.8562ZM75.5345 70.5113L74.1449 71.4062C75.0552 70.7844 75.9932 70.2099 76.9588 69.6915C76.4766 69.9504 76.0032 70.2264 75.5345 70.5113Z" fill="url(#paint0_linear_788_676)"/>
<path d="M197 124.426C182.14 125.439 167.864 119.092 157.357 108.481C143.441 94.4267 124.121 77.8918 103.099 68.7281C85.0217 60.8481 65.5981 71.7726 60.7272 90.9631C55.912 109.933 53.7315 136.944 64.7254 168.433C68.5048 179.257 67.4869 191.098 61.925 201.116C60.125 204.357 58.635 207.58 57.4758 211.134C54.7605 219.458 48.6509 226.767 40.0325 228.072L29.8494 229.614C24.7631 230.384 21.3754 235.304 22.4504 240.36C23.4346 244.989 27.8282 248.053 32.4873 247.36L48.1393 245.03C52.2536 244.417 56.1208 247.161 56.9234 251.263C57.5566 254.5 56.1035 257.788 53.2899 259.486L37.2821 269.145C33.2339 271.588 31.7885 276.783 33.9886 280.982C36.3881 285.561 42.1421 287.145 46.5275 284.432L51.0184 281.653C58.0466 277.306 67.2211 280.148 71.9268 286.962C95.9696 321.774 142.952 339.435 197 339.435C251.048 339.435 298.031 321.774 322.073 286.962C326.779 280.148 335.954 277.306 342.982 281.653L347.473 284.432C351.858 287.145 357.612 285.561 360.011 280.982C362.212 276.783 360.766 271.588 356.718 269.145L340.71 259.486C337.897 257.788 336.444 254.5 337.077 251.263C337.879 247.161 341.747 244.417 345.861 245.03L361.513 247.36C366.172 248.053 370.566 244.989 371.55 240.36C372.625 235.304 369.237 230.384 364.151 229.614L353.968 228.072C345.349 226.767 339.24 219.458 336.524 211.134C335.365 207.58 333.875 204.357 332.076 201.116C326.514 191.098 325.496 179.257 329.275 168.433C340.268 136.944 338.088 109.933 333.273 90.9631C328.402 71.7726 308.978 60.8481 290.901 68.7281C269.879 77.8918 250.559 94.4267 236.643 108.481C226.136 119.092 211.861 125.439 197 124.426ZM143.667 178.178C148.382 178.178 152.904 180.066 156.237 183.426C159.572 186.786 161.445 191.343 161.445 196.095C161.445 200.848 159.572 205.405 156.237 208.765C152.904 212.126 148.382 214.013 143.667 214.013C138.952 214.013 134.43 212.126 131.096 208.765C127.762 205.405 125.889 200.848 125.889 196.095C125.889 191.343 127.762 186.786 131.096 183.426C134.43 180.066 138.952 178.178 143.667 178.178ZM250.333 178.178C255.048 178.178 259.57 180.066 262.904 183.426C266.238 186.786 268.111 191.343 268.111 196.095C268.111 200.848 266.238 205.405 262.904 208.765C259.57 212.126 255.048 214.013 250.333 214.013C245.618 214.013 241.096 212.126 237.763 208.765C234.428 205.405 232.555 200.848 232.555 196.095C232.555 191.343 234.428 186.786 237.763 183.426C241.096 180.066 245.618 178.178 250.333 178.178ZM187.201 247.898C183.539 240.569 188.84 231.931 197 231.931C205.16 231.931 210.461 240.569 206.799 247.898L204.815 251.869C203.223 255.055 202.795 258.808 204.45 261.961C209.052 270.726 217.758 276.724 228.111 276.724C235.183 276.724 241.966 273.892 246.967 268.852C250.916 264.873 253.498 259.773 254.41 254.294C254.815 251.861 256.767 249.848 259.222 249.848C261.677 249.848 263.695 251.855 263.391 254.303C262.413 262.165 258.87 269.525 253.253 275.187C246.585 281.907 237.541 285.683 228.111 285.683C211.237 285.683 182.763 285.683 165.889 285.683C156.459 285.683 147.415 281.907 140.747 275.187C135.13 269.525 131.587 262.165 130.609 254.303C130.305 251.855 132.323 249.848 134.778 249.848C137.233 249.848 139.185 251.861 139.59 254.294C140.502 259.773 143.084 264.873 147.033 268.852C152.034 273.892 158.817 276.724 165.889 276.724C176.242 276.724 184.948 270.726 189.55 261.961C191.206 258.808 190.777 255.055 189.185 251.869L187.201 247.898Z" fill="url(#paint1_linear_788_676)"/>
<defs>
<linearGradient id="paint0_linear_788_676" x1="22.5" y1="44.5" x2="376" y2="381.5" gradientUnits="userSpaceOnUse">
<stop stop-color="#00C3F2"/>
<stop offset="1" stop-color="#0088FE"/>
</linearGradient>
<linearGradient id="paint1_linear_788_676" x1="42.2097" y1="96.8549" x2="281.484" y2="390.056" gradientUnits="userSpaceOnUse">
<stop stop-color="#00C3F2"/>
<stop offset="1" stop-color="#0088FE"/>
</linearGradient>
</defs>
</svg>
