<svg width="33" height="33" viewBox="0 0 33 33" fill="none" xmlns="http://www.w3.org/2000/svg">
<path d="M30.8931 24.2849C28.1262 29.4719 22.6816 33 16.4163 33C10.151 33 4.70593 29.472 1.9391 24.2849C2.54281 25.0633 3.65214 25.2875 4.51947 24.751L4.8736 24.5312C4.87445 24.5314 4.87552 24.5319 4.87647 24.5321C4.89061 24.536 4.91084 24.5442 4.93245 24.5595C4.95391 24.5748 4.97288 24.5942 4.98748 24.6153C6.17578 26.3358 7.90503 27.577 9.94056 28.3805C11.8624 29.441 14.0691 30.0448 16.4163 30.0448C18.7634 30.0448 20.9699 29.4409 22.8917 28.3805C24.9273 27.577 26.6568 26.3359 27.8452 24.6153C27.8598 24.5941 27.8788 24.5748 27.9002 24.5595C27.9219 24.5442 27.942 24.5359 27.9562 24.5321C27.957 24.5319 27.9579 24.5313 27.9586 24.5312L28.3132 24.751C29.1805 25.2875 30.2894 25.0631 30.8931 24.2849ZM16.4163 0C25.4828 0 32.8327 7.38732 32.8327 16.5C32.8327 19.0446 32.2588 21.4544 31.2352 23.6067C31.4186 22.9584 31.2584 22.262 30.8208 21.7621C31.4791 21.5552 32.0067 21.0073 32.1598 20.2869C32.3969 19.1718 31.6498 18.0865 30.528 17.9165L29.8293 17.8107C29.8705 17.3794 29.8924 16.9422 29.8924 16.5C29.8924 14.9725 29.6403 13.5043 29.1765 12.1345C29.4762 10.218 29.284 8.55518 28.9592 7.27551C28.3885 5.02782 26.0303 3.60486 23.7536 4.59733C23.5868 4.66999 23.4224 4.74867 23.2592 4.83014C21.2534 3.63942 18.9146 2.95522 16.4163 2.95522C13.9178 2.95522 11.5785 3.63917 9.57254 4.83014C9.4094 4.74874 9.24519 4.66993 9.07867 4.59733C6.80195 3.60511 4.44407 5.02792 3.87342 7.27551C3.5486 8.55518 3.35601 10.218 3.65568 12.1345C3.19195 13.5042 2.94024 14.9726 2.94024 16.5C2.94024 16.9422 2.96172 17.3794 3.00293 17.8107L2.30472 17.9165C1.18289 18.0865 0.435809 19.1717 0.672849 20.2869C0.825977 21.0071 1.35333 21.5551 2.01136 21.7621C1.57399 22.2619 1.41358 22.9585 1.59694 23.6067C0.57343 21.4544 0 19.0446 0 16.5C0 7.38732 7.34986 0 16.4163 0ZM2.80146 23.3484C2.79289 23.3273 2.7855 23.3059 2.77897 23.2844L2.80146 23.3484ZM2.7603 23.2089C2.75598 23.1865 2.75248 23.1641 2.75025 23.1416C2.74565 23.0951 2.74527 23.0485 2.7493 23.0025C2.74331 23.0708 2.74714 23.1402 2.7603 23.2089ZM2.4947 20.6135C2.54055 20.6199 2.58741 20.6226 2.63492 20.6202L2.56792 20.6207C2.54324 20.6197 2.51886 20.6169 2.4947 20.6135ZM30.1968 20.6202C30.1957 20.6201 30.1945 20.6203 30.1935 20.6202L30.1255 20.613C30.1494 20.6165 30.1731 20.619 30.1968 20.6202ZM1.86971 19.7212C1.8595 19.7704 1.85438 19.8212 1.8544 19.8727C1.85439 19.847 1.85563 19.8215 1.85823 19.7963C1.86085 19.7707 1.86454 19.746 1.86971 19.7212ZM5.74459 6.32122C5.74822 6.31733 5.75189 6.31354 5.75557 6.30965C5.76248 6.30246 5.76968 6.29561 5.77664 6.28852C5.76596 6.2994 5.75508 6.31009 5.74459 6.32122ZM6.29442 5.87582L6.17862 5.95039C6.25448 5.89858 6.33264 5.8507 6.4131 5.80751C6.37292 5.82908 6.33347 5.85208 6.29442 5.87582Z" fill="#2D2D2D"/>
<path d="M16.4164 10.3686C15.178 10.4531 13.9884 9.92414 13.1129 9.03993C11.9532 7.86873 10.3433 6.49085 8.59146 5.72722C7.08503 5.07057 5.46643 5.98093 5.06053 7.5801C4.65927 9.1609 4.47757 11.4118 5.39371 14.0358C5.70865 14.9378 5.62383 15.9245 5.16035 16.7593C5.01035 17.0294 4.88618 17.298 4.78958 17.5942C4.56331 18.2878 4.05419 18.8968 3.336 19.0056L2.48743 19.1341C2.06359 19.1983 1.78128 19.6083 1.87086 20.0296C1.95288 20.4154 2.319 20.6707 2.70725 20.6129L4.01156 20.4187C4.35441 20.3676 4.67667 20.5963 4.74355 20.9382C4.79632 21.2079 4.67523 21.4819 4.44077 21.6234L3.10681 22.4283C2.76947 22.6319 2.64902 23.0648 2.83236 23.4147C3.03232 23.7963 3.51181 23.9283 3.87725 23.7022L4.25148 23.4706C4.83715 23.1084 5.60168 23.3452 5.99381 23.913C7.99734 26.814 11.9125 28.2857 16.4164 28.2857C20.9203 28.2857 24.8354 26.814 26.8389 23.913C27.2311 23.3452 27.9956 23.1084 28.5813 23.4706L28.9555 23.7022C29.3209 23.9283 29.8004 23.7963 30.0004 23.4147C30.1837 23.0648 30.0633 22.6319 29.7259 22.4283L28.392 21.6234C28.1575 21.4819 28.0364 21.2079 28.0892 20.9382C28.1561 20.5963 28.4784 20.3676 28.8212 20.4187L30.1255 20.6129C30.5137 20.6707 30.8799 20.4154 30.9619 20.0296C31.0515 19.6083 30.7691 19.1983 30.3453 19.1341L29.4968 19.0056C28.7786 18.8968 28.2695 18.2878 28.0432 17.5942C27.9466 17.298 27.8224 17.0294 27.6724 16.7593C27.209 15.9245 27.1241 14.9378 27.439 14.0358C28.3552 11.4118 28.1735 9.1609 27.7722 7.5801C27.3663 5.98093 25.7477 5.07057 24.2413 5.72722C22.4895 6.49085 20.8796 7.86873 19.7199 9.03993C18.8443 9.92414 17.6547 10.4531 16.4164 10.3686ZM11.9721 14.8479C12.365 14.8479 12.7418 15.0052 13.0196 15.2852C13.2974 15.5652 13.4535 15.945 13.4535 16.341C13.4535 16.737 13.2974 17.1167 13.0196 17.3967C12.7418 17.6768 12.365 17.834 11.9721 17.834C11.5791 17.834 11.2023 17.6768 10.9245 17.3967C10.6467 17.1167 10.4906 16.737 10.4906 16.341C10.4906 15.945 10.6467 15.5652 10.9245 15.2852C11.2023 15.0052 11.5791 14.8479 11.9721 14.8479ZM20.8607 14.8479C21.2536 14.8479 21.6304 15.0052 21.9082 15.2852C22.186 15.5652 22.3422 15.945 22.3422 16.341C22.3422 16.737 22.186 17.1167 21.9082 17.3967C21.6304 17.6768 21.2536 17.834 20.8607 17.834C20.4678 17.834 20.091 17.6768 19.8132 17.3967C19.5353 17.1167 19.3792 16.737 19.3792 16.341C19.3792 15.945 19.5353 15.5652 19.8132 15.2852C20.091 15.0052 20.4678 14.8479 20.8607 14.8479ZM15.5998 20.6578C15.2946 20.047 15.7364 19.3272 16.4164 19.3272C17.0963 19.3272 17.5381 20.047 17.233 20.6578L17.0676 20.9887C16.9349 21.2542 16.8993 21.5669 17.0372 21.8296C17.4207 22.56 18.1462 23.0599 19.0089 23.0599C19.5982 23.0599 20.1635 22.8239 20.5802 22.4039C20.9092 22.0723 21.1245 21.6473 21.2004 21.1908C21.2342 20.988 21.3969 20.8202 21.6014 20.8202C21.806 20.8202 21.9742 20.9875 21.9488 21.1915C21.8674 21.8466 21.5721 22.46 21.104 22.9317C20.5483 23.4918 19.7947 23.8064 19.0089 23.8064C17.6028 23.8064 15.23 23.8064 13.8239 23.8064C13.038 23.8064 12.2844 23.4918 11.7287 22.9317C11.2607 22.46 10.9654 21.8466 10.8839 21.1915C10.8586 20.9875 11.0268 20.8202 11.2313 20.8202C11.4358 20.8202 11.5985 20.988 11.6323 21.1908C11.7083 21.6473 11.9235 22.0723 12.2525 22.4039C12.6693 22.8239 13.2345 23.0599 13.8239 23.0599C14.6865 23.0599 15.412 22.56 15.7955 21.8296C15.9335 21.5669 15.8978 21.2542 15.7652 20.9887L15.5998 20.6578Z" fill="#2D2D2D"/>
</svg>
