<svg width="64" height="59" viewBox="0 0 64 59" fill="none" xmlns="http://www.w3.org/2000/svg">
<path d="M17.2308 0C17.2308 2.74596 15.0572 4.91667 12.3077 4.91667H9.84615C4.43077 4.91667 0 9.34167 0 14.75C0 20.1583 4.43077 24.5833 9.84615 24.5833H12.6917C12.4366 25.796 12.3079 27.0317 12.3077 28.2708V59H17.2308V28.2708C17.2308 20.8196 23.3083 14.75 30.7692 14.75C32.9895 14.75 35.0769 15.2589 36.9231 16.2102V10.9101C34.9479 10.2046 32.8669 9.84049 30.7692 9.83333C23.712 9.83333 17.568 13.838 14.4615 19.6667H9.84615C7.09662 19.6667 4.92308 17.496 4.92308 14.75C4.92308 12.004 7.09662 9.83333 9.84615 9.83333H12.3077C17.7231 9.83333 22.1538 5.40833 22.1538 0H17.2308ZM39.3846 5.14775V20.8958C39.3846 27.1646 45.0855 31.9583 51.6923 31.9583C58.2991 31.9583 64 27.1646 64 20.8958V5.14775L60.1526 7.83471L56.0763 10.679C54.6732 10.18 53.2874 9.60225 51.6923 9.60225C50.0972 9.60225 48.7138 10.18 47.3083 10.679L43.2295 7.83717L39.3846 5.14775ZM51.6923 14.5189C53.1151 14.5189 54.4246 14.8631 55.5397 15.4408L56.8443 16.1316L58.0751 15.2884L59.0769 14.5976V20.8958C59.0769 24.131 55.9606 27.0417 51.6923 27.0417C47.424 27.0417 44.3077 24.131 44.3077 20.8958V14.5951L45.3071 15.2884L46.5378 16.134L47.8474 15.4408C49.0369 14.8312 50.3553 14.5151 51.6923 14.5189ZM34.4615 27.0417C27.6726 27.0417 22.1538 32.5532 22.1538 39.3333V59H27.0769V39.3333C27.0769 35.2722 30.3951 31.9583 34.4615 31.9583C38.528 31.9583 41.8462 35.2722 41.8462 39.3333V59H46.7692V39.3333C46.7692 36.961 46.0972 34.7608 44.9231 32.8802C42.5977 31.7807 40.6065 30.0839 39.1532 27.9635C37.6647 27.3529 36.0707 27.0397 34.4615 27.0417ZM56.6154 33.6497C55.0245 34.1605 53.3634 34.4193 51.6923 34.4167V59H56.6154V33.6497Z" fill="#0091F3" fill-opacity="0.7"/>
</svg>
