<svg width="36" height="36" viewBox="0 0 36 36" fill="none" xmlns="http://www.w3.org/2000/svg">
<path d="M21.6 7.19995C17.4672 7.19995 14.4272 7.33755 12.352 7.48555C9.71195 7.67435 7.67435 9.71115 7.48555 12.3528C7.33755 14.4272 7.19995 17.4672 7.19995 21.6C7.19995 25.7327 7.33755 28.7728 7.48555 30.8479C7.67435 33.488 9.71115 35.5256 12.3528 35.7144C14.4272 35.8624 17.4672 36 21.6 36C25.7327 36 28.7728 35.8624 30.8479 35.7144C33.488 35.5256 35.5256 33.4887 35.7144 30.8471C35.8624 28.7727 36 25.7327 36 21.6C36 17.4672 35.8624 14.4272 35.7144 12.352C35.5256 9.71195 33.4887 7.67435 30.8471 7.48555C28.7727 7.33755 25.7327 7.19995 21.6 7.19995Z" fill="#9FA1A3"/>
<path d="M5.152 0.2856C7.2272 0.1376 10.2672 0 14.4 0C18.5328 0 21.5728 0.1376 23.648 0.2856C26.2192 0.4696 28.2184 2.4056 28.496 4.9456C26.1987 4.84436 23.8995 4.79581 21.6 4.8C17.4136 4.8 14.3168 4.9392 12.1816 5.092C8.3496 5.3656 5.3656 8.3496 5.092 12.1816C4.94 14.3168 4.8 17.4136 4.8 21.6C4.8 24.36 4.8608 26.6456 4.9456 28.496C2.4056 28.2184 0.4696 26.2192 0.2856 23.648C0.1376 21.5728 0 18.5328 0 14.4C0 10.2672 0.1376 7.2272 0.2856 5.152C0.4744 2.512 2.5104 0.4744 5.152 0.2856ZM33.5336 26.312C32.6828 25.5348 31.8124 24.7794 30.9232 24.0464C29.7288 23.0688 28.1256 22.9144 26.8144 23.7888C25.9632 24.3568 24.8208 25.2008 23.3512 26.4456C21.1184 24.32 19.5592 22.9624 18.5192 22.1112C17.324 21.1344 15.7208 20.9792 14.4096 21.8536C13.3232 22.5784 11.7592 23.7552 9.648 25.6424C9.7008 27.732 9.7888 29.3992 9.88 30.6768C9.984 32.1272 11.0736 33.2168 12.524 33.32C14.5376 33.464 17.52 33.6 21.6 33.6C25.68 33.6 28.6624 33.464 30.6768 33.32C32.1272 33.216 33.2168 32.1272 33.32 30.6768C33.4016 29.5384 33.48 28.0912 33.5336 26.312ZM24.8 15.2C24.8 14.3513 25.1371 13.5374 25.7373 12.9373C26.3374 12.3371 27.1513 12 28 12C28.8487 12 29.6626 12.3371 30.2627 12.9373C30.8629 13.5374 31.2 14.3513 31.2 15.2C31.2 16.0487 30.8629 16.8626 30.2627 17.4627C29.6626 18.0629 28.8487 18.4 28 18.4C27.1513 18.4 26.3374 18.0629 25.7373 17.4627C25.1371 16.8626 24.8 16.0487 24.8 15.2Z" fill="#2C2C2C"/>
<path d="M35.8528 28.4727C33.5672 26.2935 31.9792 24.9095 30.9232 24.0463C29.7288 23.0687 28.1248 22.9143 26.8144 23.7887C25.9632 24.3567 24.82 25.2007 23.3512 26.4455C21.1184 24.3199 19.5592 22.9623 18.5192 22.1111C17.324 21.1343 15.7208 20.9791 14.4096 21.8535C12.956 22.8231 10.6488 24.6007 7.31836 27.8103C7.36636 28.9895 7.42476 29.9991 7.48636 30.8471C7.67436 33.4887 9.71116 35.5255 12.352 35.7143C14.4272 35.8623 17.4672 35.9999 21.6 35.9999C25.7328 35.9999 28.7728 35.8623 30.848 35.7143C33.488 35.5255 35.5256 33.4887 35.7136 30.8471C35.7632 30.1634 35.8096 29.3719 35.8528 28.4727Z" fill="#2C2C2C"/>
</svg>
