<svg width="42" height="42" viewBox="0 0 42 42" fill="none" xmlns="http://www.w3.org/2000/svg">
<path d="M21 3.5C16.4155 3.51235 12.0182 5.31965 8.75 8.53475V5.25C8.75 4.78587 8.56563 4.34075 8.23744 4.01256C7.90925 3.68437 7.46413 3.5 7 3.5C6.53587 3.5 6.09075 3.68437 5.76256 4.01256C5.43437 4.34075 5.25 4.78587 5.25 5.25V13.125C5.25 13.5891 5.43437 14.0342 5.76256 14.3624C6.09075 14.6906 6.53587 14.875 7 14.875H14.875C15.3391 14.875 15.7842 14.6906 16.1124 14.3624C16.4406 14.0342 16.625 13.5891 16.625 13.125C16.625 12.6609 16.4406 12.2158 16.1124 11.8876C15.7842 11.5594 15.3391 11.375 14.875 11.375H10.8815C12.4773 9.69725 14.4647 8.44195 16.6653 7.72175C18.8659 7.00155 21.2109 6.83898 23.4899 7.24863C25.7688 7.65829 27.9104 8.62734 29.7225 10.0688C31.5345 11.5103 32.9603 13.3792 33.8719 15.5076C34.7835 17.6361 35.1524 19.9576 34.9455 22.2638C34.7386 24.57 33.9624 26.7888 32.6864 28.721C31.4105 30.6532 29.6748 32.2384 27.6351 33.3343C25.5954 34.4302 23.3155 35.0026 21 35C20.5359 35 20.0908 35.1844 19.7626 35.5126C19.4344 35.8408 19.25 36.2859 19.25 36.75C19.25 37.2141 19.4344 37.6592 19.7626 37.9874C20.0908 38.3156 20.5359 38.5 21 38.5C25.6413 38.5 30.0925 36.6563 33.3744 33.3744C36.6563 30.0925 38.5 25.6413 38.5 21C38.5 16.3587 36.6563 11.9075 33.3744 8.62563C30.0925 5.34374 25.6413 3.5 21 3.5Z" fill="#0091F3"/>
<path d="M24.5 22.75H21C20.5359 22.75 20.0908 22.5656 19.7626 22.2374C19.4344 21.9092 19.25 21.4641 19.25 21V15.75C19.25 15.2859 19.4344 14.8408 19.7626 14.5126C20.0908 14.1844 20.5359 14 21 14C21.4641 14 21.9092 14.1844 22.2374 14.5126C22.5656 14.8408 22.75 15.2859 22.75 15.75V19.25H24.5C24.9641 19.25 25.4092 19.4344 25.7374 19.7626C26.0656 20.0908 26.25 20.5359 26.25 21C26.25 21.4641 26.0656 21.9092 25.7374 22.2374C25.4092 22.5656 24.9641 22.75 24.5 22.75Z" fill="#0091F3"/>
<path opacity="0.5" d="M21 7C19.1051 7.00652 17.2313 7.39763 15.492 8.14966C13.7527 8.90168 12.1842 9.99895 10.8815 11.375H14.875C15.3391 11.375 15.7842 11.5594 16.1124 11.8876C16.4406 12.2158 16.625 12.6609 16.625 13.125C16.625 13.5891 16.4406 14.0342 16.1124 14.3624C15.7842 14.6906 15.3391 14.875 14.875 14.875H7C6.57622 14.8716 6.16838 14.713 5.85363 14.4293C5.53889 14.1455 5.33908 13.7562 5.292 13.335C3.98136 16 3.37216 18.9552 3.52201 21.9213C3.67186 24.8873 4.57581 27.7661 6.14836 30.2854C7.72092 32.8047 9.91011 34.8813 12.5089 36.3187C15.1077 37.7561 18.0302 38.5069 21 38.5C20.5359 38.5 20.0908 38.3156 19.7626 37.9874C19.4344 37.6593 19.25 37.2141 19.25 36.75C19.25 36.2859 19.4344 35.8407 19.7626 35.5126C20.0908 35.1844 20.5359 35 21 35C24.713 35 28.274 33.525 30.8995 30.8995C33.525 28.274 35 24.713 35 21C35 17.287 33.525 13.726 30.8995 11.1005C28.274 8.475 24.713 7 21 7ZM24.5 22.75H21C20.5359 22.75 20.0908 22.5656 19.7626 22.2374C19.4344 21.9092 19.25 21.4641 19.25 21V15.75C19.25 15.2859 19.4344 14.8408 19.7626 14.5126C20.0908 14.1844 20.5359 14 21 14C21.4641 14 21.9093 14.1844 22.2374 14.5126C22.5656 14.8408 22.75 15.2859 22.75 15.75V19.25H24.5C24.9641 19.25 25.4093 19.4344 25.7374 19.7626C26.0656 20.0908 26.25 20.5359 26.25 21C26.25 21.4641 26.0656 21.9092 25.7374 22.2374C25.4093 22.5656 24.9641 22.75 24.5 22.75Z" fill="#0091F3"/>
</svg>
