<svg width="21" height="21" viewBox="0 0 21 21" fill="none" xmlns="http://www.w3.org/2000/svg">
<path d="M17.3088 15.8989C17.7488 15.2089 17.9987 14.379 17.9987 13.4991C17.9987 10.9992 15.9989 8.99937 13.4991 8.99937C10.9992 8.99937 8.99937 10.9992 8.99937 13.4991C8.99937 15.9989 10.9992 17.9987 13.4991 17.9987C14.369 17.9987 15.1889 17.7488 15.8789 17.3188L18.9987 20.3886L20.3886 18.9987L17.3088 15.8989ZM13.4991 15.9989C12.8361 15.9989 12.2002 15.7355 11.7314 15.2667C11.2626 14.7979 10.9992 14.1621 10.9992 13.4991C10.9992 12.8361 11.2626 12.2002 11.7314 11.7314C12.2002 11.2626 12.8361 10.9992 13.4991 10.9992C14.1621 10.9992 14.7979 11.2626 15.2667 11.7314C15.7355 12.2002 15.9989 12.8361 15.9989 13.4991C15.9989 14.1621 15.7355 14.7979 15.2667 15.2667C14.7979 15.7355 14.1621 15.9989 13.4991 15.9989ZM2.99979 16.9988V8.99937H0L9.9993 0L19.9986 8.99937H18.1787C17.3174 8.09766 16.2127 7.46545 14.999 7.1795L9.9993 2.68981L4.99965 7.1895V14.999H7.1795C7.34949 15.7189 7.63947 16.3889 8.02944 16.9988H2.99979Z" fill="#1186F3"/>
</svg>
