<svg width="36" height="38" viewBox="0 0 36 38" fill="none" xmlns="http://www.w3.org/2000/svg">
<path d="M23.25 36.5H29.55C30.1033 36.5 30.6512 36.3907 31.1621 36.1783C31.6731 35.9659 32.137 35.6547 32.5273 35.2624C32.9176 34.8702 33.2265 34.4047 33.4363 33.8927C33.6462 33.3807 33.7528 32.8323 33.75 32.279V12.581C33.75 11.9125 33.435 11.2965 32.91 10.8923L19.225 1.92C18.8621 1.64602 18.4197 1.4978 17.965 1.4978C17.5103 1.4978 17.0679 1.64602 16.705 1.92L3.08999 10.8923C2.56499 11.2965 2.24999 11.9125 2.24999 12.581V32.279C2.24722 32.8323 2.35382 33.3807 2.56365 33.8927C2.77348 34.4047 3.08241 34.8702 3.47269 35.2624C3.86298 35.6547 4.32692 35.9659 4.83786 36.1783C5.3488 36.3907 5.89667 36.5 6.44999 36.5H12.75V20.4C12.75 19.63 13.38 19 14.15 19H21.85C22.62 19 23.25 19.63 23.25 20.4V36.5Z" fill="#0091F3" fill-opacity="0.16"/>
<path d="M29.55 36.4996H6.44999C5.89667 36.4996 5.3488 36.3903 4.83786 36.1779C4.32692 35.9655 3.86298 35.6543 3.47269 35.262C3.08241 34.8698 2.77348 34.4043 2.56365 33.8923C2.35382 33.3803 2.24722 32.8319 2.24999 32.2786V12.5806C2.24999 11.9121 2.56499 11.2961 3.08999 10.8918L16.705 1.92135C17.0679 1.64736 17.5103 1.49915 17.965 1.49915C18.4197 1.49915 18.8621 1.64736 19.225 1.92135L32.91 10.8918C33.435 11.2961 33.75 11.9121 33.75 12.5806V32.2786C33.7528 32.8319 33.6462 33.3803 33.4363 33.8923C33.2265 34.4043 32.9176 34.8698 32.5273 35.262C32.137 35.6543 31.6731 35.9655 31.1621 36.1779C30.6512 36.3903 30.1033 36.4996 29.55 36.4996Z" stroke="#0091F3" stroke-width="3" stroke-miterlimit="10"/>
<path d="M14.15 19H21.85C22.62 19 23.25 19.63 23.25 20.4V36.5H12.75V20.4C12.75 19.63 13.38 19 14.15 19Z" stroke="#0091F3" stroke-width="3" stroke-miterlimit="10"/>
</svg>
