<svg width="14" height="15" viewBox="0 0 14 15" fill="none" xmlns="http://www.w3.org/2000/svg">
<path d="M8.92545 14H11.2653C11.4708 14 11.6743 13.9594 11.8641 13.8805C12.0538 13.8016 12.2261 13.686 12.3711 13.5404C12.516 13.3947 12.6308 13.2218 12.7087 13.0316C12.7866 12.8415 12.8262 12.6378 12.8252 12.4323V5.11636C12.8252 4.86807 12.7082 4.63929 12.5132 4.48915L7.43054 1.15681C7.29575 1.05505 7.13146 1 6.96257 1C6.79368 1 6.62939 1.05505 6.4946 1.15681L1.43792 4.48915C1.24293 4.63929 1.12594 4.86807 1.12594 5.11636V12.4323C1.12491 12.6378 1.1645 12.8415 1.24243 13.0316C1.32036 13.2218 1.4351 13.3947 1.58005 13.5404C1.72501 13.686 1.89732 13.8016 2.08708 13.8805C2.27685 13.9594 2.48033 14 2.68584 14H5.02569V8.02038C5.02569 7.73439 5.25968 7.50041 5.54566 7.50041H8.40548C8.69146 7.50041 8.92545 7.73439 8.92545 8.02038V14Z" fill="white" fill-opacity="0.16"/>
<path d="M11.2653 13.9998H2.68584C2.48033 13.9998 2.27685 13.9592 2.08708 13.8804C1.89732 13.8015 1.72501 13.6859 1.58005 13.5402C1.4351 13.3945 1.32036 13.2216 1.24243 13.0315C1.1645 12.8413 1.12491 12.6376 1.12594 12.4321V5.1162C1.12594 4.86791 1.24293 4.63913 1.43792 4.48899L6.4946 1.1573C6.62939 1.05554 6.79368 1.00049 6.96257 1.00049C7.13146 1.00049 7.29575 1.05554 7.43054 1.1573L12.5132 4.48899C12.7082 4.63913 12.8252 4.86791 12.8252 5.1162V12.4321C12.8262 12.6376 12.7866 12.8413 12.7087 13.0315C12.6308 13.2216 12.516 13.3945 12.3711 13.5402C12.2261 13.6859 12.0538 13.8015 11.8641 13.8804C11.6743 13.9592 11.4708 13.9998 11.2653 13.9998Z" stroke="#2C2C2C" stroke-miterlimit="10"/>
<path d="M5.54566 7.50024H8.40548C8.69147 7.50024 8.92545 7.73423 8.92545 8.02021V13.9998H5.0257V8.02021C5.0257 7.73423 5.25968 7.50024 5.54566 7.50024Z" stroke="#2C2C2C" stroke-miterlimit="10"/>
</svg>
