<svg width="84" height="84" viewBox="0 0 84 84" fill="none" xmlns="http://www.w3.org/2000/svg">
<path d="M19.2109 21.194C19.7647 21.2208 20.3005 21.3967 20.7617 21.7028L37.7715 32.988C38.6104 33.5443 39.2985 34.2979 39.7744 35.1823C40.2504 36.067 40.4998 37.0558 40.5 38.0593V69.9518C40.5001 70.5035 40.3493 71.045 40.0645 71.5182C39.7796 71.9915 39.3706 72.3791 38.8818 72.6393C38.3931 72.8995 37.8427 73.0225 37.2891 72.9958C36.7354 72.969 36.1994 72.7931 35.7383 72.487L18.7285 61.2048C17.889 60.6481 17.2006 59.8936 16.7246 59.0085C16.2486 58.1233 15.9997 57.1345 16 56.1305V24.238C15.9999 23.6862 16.1506 23.1449 16.4355 22.6716C16.7205 22.1983 17.1293 21.8107 17.6182 21.5505C18.1069 21.2903 18.6573 21.1673 19.2109 21.194ZM58.1426 54.4284C60.2191 54.4284 61.8573 56.0658 61.8574 58.1423C61.8574 59.1075 61.5025 59.9772 60.915 60.6325C60.6775 60.5487 60.4498 60.437 60.2383 60.2966L57.3438 58.3766V54.5114C57.6005 54.4568 57.8677 54.4284 58.1426 54.4284ZM31.4609 15.0983C32.0146 15.1252 32.5506 15.3009 33.0117 15.6071L50.0215 26.8923C50.8606 27.4487 51.5484 28.203 52.0244 29.0876C52.5004 29.9722 52.7498 30.9601 52.75 31.9635V43.9928C50.7745 44.7459 48.9594 45.9114 47.4355 47.4352C46.5221 48.3486 45.738 49.3671 45.0938 50.4616V38.0593C45.0935 36.3034 44.6579 34.5741 43.8252 33.026C42.9923 31.4779 41.7877 30.1581 40.3193 29.1843L28.25 21.1755V18.1432C28.2498 17.5915 28.3998 17.0492 28.6846 16.5759C28.9693 16.1026 29.3785 15.7151 29.8672 15.4548C30.3561 15.1945 30.9071 15.0715 31.4609 15.0983ZM43.7109 9.00359C44.2646 9.03035 44.8006 9.20625 45.2617 9.51238L62.2715 20.7975C63.1106 21.354 63.7984 22.1083 64.2744 22.9928C64.7503 23.8774 64.9998 24.8654 65 25.8688V44.6423C62.8945 43.5728 60.5481 42.9997 58.1426 42.9997C57.8755 42.9997 57.6091 43.0071 57.3438 43.0212V31.9635C57.3435 30.2075 56.9081 28.4785 56.0752 26.9303C55.2424 25.3823 54.0377 24.0634 52.5693 23.0895L40.5 15.0798V12.0475C40.4999 11.4959 40.6507 10.9544 40.9355 10.4811C41.2204 10.0079 41.6294 9.62029 42.1182 9.36003C42.6069 9.0999 43.1573 8.97685 43.7109 9.00359Z" fill="white"/>
<path d="M58.1429 47C61.0981 47 63.9324 48.174 66.022 50.2637C68.1117 52.3534 69.2857 55.1876 69.2857 58.1429C69.2857 60.9029 68.2743 63.44 66.6114 65.3943L67.0743 65.8571H68.4286L77 74.4286L74.4286 77L65.8571 68.4286V67.0743L65.3943 66.6114C63.3721 68.3368 60.8011 69.2849 58.1429 69.2857C55.1876 69.2857 52.3534 68.1117 50.2637 66.022C48.174 63.9324 47 61.0981 47 58.1429C47 55.1876 48.174 52.3534 50.2637 50.2637C52.3534 48.174 55.1876 47 58.1429 47ZM58.1429 50.4286C53.8571 50.4286 50.4286 53.8571 50.4286 58.1429C50.4286 62.4286 53.8571 65.8571 58.1429 65.8571C62.4286 65.8571 65.8571 62.4286 65.8571 58.1429C65.8571 53.8571 62.4286 50.4286 58.1429 50.4286Z" fill="white"/>
</svg>
