<svg width="84" height="84" viewBox="0 0 84 84" fill="none" xmlns="http://www.w3.org/2000/svg">
<path d="M19.2109 21.1938C19.7646 21.2206 20.3006 21.3965 20.7617 21.7026L37.7715 32.9878C38.6106 33.5442 39.2984 34.2985 39.7744 35.1831C40.2504 36.0677 40.4998 37.0556 40.5 38.0591V69.9517C40.5001 70.5034 40.3493 71.0447 40.0645 71.5181C39.7795 71.9914 39.3707 72.3789 38.8818 72.6392C38.3931 72.8993 37.8427 73.0233 37.2891 72.9966C36.7355 72.9698 36.1994 72.7938 35.7383 72.4878L18.7285 61.2056C17.889 60.6489 17.2006 59.8944 16.7246 59.0093C16.2486 58.1241 15.9997 57.1352 16 56.1313V24.2378C16 23.6862 16.1507 23.1446 16.4355 22.6714C16.7204 22.1982 17.1294 21.8105 17.6182 21.5503C18.1069 21.2902 18.6574 21.1671 19.2109 21.1938ZM50.6582 66.397C50.6519 66.3912 50.645 66.3861 50.6387 66.3804L50.2637 66.022C50.3923 66.1506 50.5241 66.2754 50.6582 66.397ZM58.1426 54.4282C60.219 54.4282 61.8571 56.0658 61.8574 58.1421C61.8574 59.1076 61.5028 59.9779 60.915 60.6333C60.6775 60.5495 60.4498 60.4378 60.2383 60.2974L57.3438 58.3774V54.5112C57.6005 54.4566 57.8677 54.4282 58.1426 54.4282ZM31.4609 15.0981C32.0148 15.125 32.5505 15.3016 33.0117 15.6079L50.0215 26.8931C50.8604 27.4494 51.5485 28.203 52.0244 29.0874C52.5004 29.9719 52.7498 30.96 52.75 31.9634V43.9927C50.7745 44.7458 48.9594 45.9113 47.4355 47.4351C46.5221 48.3485 45.738 49.3669 45.0938 50.4614V38.0591C45.0935 36.3031 44.658 34.574 43.8252 33.0259C42.9923 31.4777 41.7878 30.1579 40.3193 29.1841L28.25 21.1753V18.1431C28.2498 17.5914 28.3999 17.05 28.6846 16.5767C28.9693 16.1033 29.3784 15.715 29.8672 15.4546C30.3561 15.1943 30.9071 15.0713 31.4609 15.0981ZM43.7109 9.00342C44.2646 9.03018 44.8006 9.20614 45.2617 9.51221L62.2715 20.7974C63.1106 21.3538 63.7984 22.1081 64.2744 22.9927C64.7504 23.8773 64.9998 24.8652 65 25.8687V44.6421C62.8944 43.5727 60.5481 42.9995 58.1426 42.9995C57.8755 42.9995 57.6091 43.007 57.3438 43.021V31.9634C57.3434 30.2077 56.9078 28.479 56.0752 26.9312C55.2423 25.383 54.0377 24.0632 52.5693 23.0894L40.5 15.0806V12.0483C40.4999 11.4966 40.6506 10.9543 40.9355 10.481C41.2204 10.0078 41.6294 9.62008 42.1182 9.35986C42.6069 9.09978 43.1574 8.97669 43.7109 9.00342Z" fill="url(#paint0_linear_830_708)"/>
<path d="M58.1429 47C61.0981 47 63.9324 48.174 66.022 50.2637C68.1117 52.3534 69.2857 55.1876 69.2857 58.1429C69.2857 60.9029 68.2743 63.44 66.6114 65.3943L67.0743 65.8571H68.4286L77 74.4286L74.4286 77L65.8571 68.4286V67.0743L65.3943 66.6114C63.3721 68.3368 60.8011 69.2849 58.1429 69.2857C55.1876 69.2857 52.3534 68.1117 50.2637 66.022C48.174 63.9324 47 61.0981 47 58.1429C47 55.1876 48.174 52.3534 50.2637 50.2637C52.3534 48.174 55.1876 47 58.1429 47ZM58.1429 50.4286C53.8571 50.4286 50.4286 53.8571 50.4286 58.1429C50.4286 62.4286 53.8571 65.8571 58.1429 65.8571C62.4286 65.8571 65.8571 62.4286 65.8571 58.1429C65.8571 53.8571 62.4286 50.4286 58.1429 50.4286Z" fill="url(#paint1_linear_830_708)"/>
<defs>
<linearGradient id="paint0_linear_830_708" x1="-0.467213" y1="12.2939" x2="81.6066" y2="65.5918" gradientUnits="userSpaceOnUse">
<stop stop-color="#2DD4BF"/>
<stop offset="0.5" stop-color="#22C55E"/>
<stop offset="1" stop-color="#059669"/>
</linearGradient>
<linearGradient id="paint1_linear_830_708" x1="36.918" y1="48.5442" x2="78.4668" y2="83.7853" gradientUnits="userSpaceOnUse">
<stop stop-color="#2DD4BF"/>
<stop offset="0.5" stop-color="#22C55E"/>
<stop offset="1" stop-color="#059669"/>
</linearGradient>
</defs>
</svg>
