<svg width="19" height="13" viewBox="0 0 19 13" fill="none" xmlns="http://www.w3.org/2000/svg">
<path fill-rule="evenodd" clip-rule="evenodd" d="M8.0801 9.75092C8.0938 9.83243 8.09129 9.91584 8.07273 9.99638C8.05418 10.0769 8.01993 10.153 7.97195 10.2203C7.92397 10.2876 7.8632 10.3448 7.7931 10.3886C7.72301 10.4324 7.64498 10.4619 7.56346 10.4756C5.55101 10.8134 3.63349 11.5756 1.93826 12.7116C1.79957 12.8043 1.62971 12.8382 1.46606 12.8057C1.3024 12.7732 1.15835 12.677 1.06559 12.5384C0.972833 12.3997 0.938969 12.2298 0.971449 12.0662C1.00393 11.9025 1.10009 11.7584 1.23878 11.6657C3.08214 10.4305 5.16719 9.60173 7.35546 9.23428C7.43697 9.22059 7.52038 9.22309 7.60092 9.24165C7.68146 9.2602 7.75755 9.29445 7.82485 9.34243C7.89214 9.39041 7.94932 9.45119 7.99312 9.52128C8.03692 9.59137 8.06648 9.6694 8.0801 9.75092ZM11.8711 9.75092C11.8847 9.6694 11.9142 9.59137 11.958 9.52128C12.0018 9.45119 12.059 9.39041 12.1263 9.34243C12.1936 9.29445 12.2697 9.2602 12.3502 9.24165C12.4308 9.22309 12.5142 9.22059 12.5957 9.23428C14.784 9.60173 16.869 10.4305 18.7124 11.6657C18.8511 11.7584 18.9472 11.9025 18.9797 12.0662C19.0122 12.2298 18.9783 12.3997 18.8856 12.5384C18.7928 12.677 18.6488 12.7732 18.4851 12.8057C18.3214 12.8382 18.1516 12.8043 18.0129 12.7116C16.3177 11.5756 14.4001 10.8134 12.3877 10.4756C12.3062 10.4619 12.2281 10.4324 12.158 10.3886C12.088 10.3448 12.0272 10.2876 11.9792 10.2203C11.9312 10.153 11.897 10.0769 11.8784 9.99638C11.8599 9.91584 11.8574 9.83243 11.8711 9.75092Z" fill="#2C2C2C"/>
<path fill-rule="evenodd" clip-rule="evenodd" d="M5.15298 4.82256C5.15298 3.54353 5.66107 2.3169 6.56548 1.41249C7.46988 0.508089 8.69652 0 9.97554 0C11.2546 0 12.4812 0.508089 13.3856 1.41249C14.29 2.3169 14.7981 3.54353 14.7981 4.82256C14.7981 7.12229 13.6541 9.14441 12.5713 10.5526C11.9726 11.3273 11.3024 12.0439 10.5693 12.693C10.5086 12.7456 10.4471 12.7973 10.3848 12.8481L10.3739 12.8582L10.3706 12.8607H10.3689C10.3689 12.8615 10.3689 12.8624 9.97554 12.3709L9.6149 12.8859L9.61238 12.8842L9.60903 12.8817L9.59645 12.8733L9.55535 12.8431L9.40858 12.7324C9.23608 12.5971 9.06771 12.4567 8.90368 12.3114C8.35389 11.8248 7.84659 11.2922 7.3873 10.7195C6.28859 9.34653 5.15298 7.32441 5.15298 4.82256ZM9.97554 12.3709L9.6149 12.8859C9.72622 12.964 9.85987 13.0039 9.99581 12.9997C10.1317 12.9955 10.2626 12.9473 10.3689 12.8624L9.97554 12.3709ZM9.95373 11.5548C10.0264 11.4889 10.1064 11.4134 10.1936 11.3284C10.6906 10.8481 11.152 10.3324 11.5741 9.78518C12.5873 8.46841 13.54 6.71635 13.54 4.82256C13.54 3.87719 13.1645 2.97055 12.496 2.30208C11.8275 1.6336 10.9209 1.25806 9.97554 1.25806C9.03018 1.25806 8.12353 1.6336 7.45506 2.30208C6.78659 2.97055 6.41104 3.87719 6.41104 4.82256C6.41104 6.93358 7.37136 8.68563 8.37026 9.93363C8.84458 10.5238 9.37487 11.0668 9.95373 11.5548ZM9.97554 3.77417C9.69749 3.77417 9.43083 3.88463 9.23422 4.08124C9.03761 4.27785 8.92716 4.54451 8.92716 4.82256C8.92716 5.1006 9.03761 5.36726 9.23422 5.56387C9.43083 5.76048 9.69749 5.87094 9.97554 5.87094C10.2536 5.87094 10.5202 5.76048 10.7169 5.56387C10.9135 5.36726 11.0239 5.1006 11.0239 4.82256C11.0239 4.54451 10.9135 4.27785 10.7169 4.08124C10.5202 3.88463 10.2536 3.77417 9.97554 3.77417ZM7.6691 4.82256C7.6691 4.21085 7.9121 3.6242 8.34464 3.19166C8.77718 2.75912 9.36383 2.51612 9.97554 2.51612C10.5872 2.51612 11.1739 2.75912 11.6064 3.19166C12.039 3.6242 12.282 4.21085 12.282 4.82256C12.282 5.43426 12.039 6.02091 11.6064 6.45346C11.1739 6.886 10.5872 7.129 9.97554 7.129C9.36383 7.129 8.77718 6.886 8.34464 6.45346C7.9121 6.02091 7.6691 5.43426 7.6691 4.82256Z" fill="#2C2C2C"/>
</svg>
