<svg width="14" height="13" viewBox="0 0 14 13" fill="none" xmlns="http://www.w3.org/2000/svg">
<path d="M12.7534 9.02778C11.8867 9.02778 10.9478 8.88333 10.1534 8.59444H9.9367C9.72003 8.59444 9.57559 8.66667 9.43114 8.81111L7.84225 10.4C5.82003 9.31667 4.0867 7.65556 3.07559 5.63333L4.66447 4.04444C4.88114 3.82778 4.95336 3.53889 4.80892 3.32222C4.59225 2.52778 4.44781 1.58889 4.44781 0.722222C4.44781 0.361111 4.0867 0 3.72559 0H1.19781C0.836697 0 0.475586 0.361111 0.475586 0.722222C0.475586 7.51111 5.96448 13 12.7534 13C13.1145 13 13.4756 12.6389 13.4756 12.2778V9.75C13.4756 9.38889 13.1145 9.02778 12.7534 9.02778ZM1.92003 1.44444H3.00336C3.07559 2.09444 3.22003 2.74444 3.36447 3.32222L2.49781 4.18889C2.20892 3.32222 1.99225 2.38333 1.92003 1.44444ZM12.0311 11.5556C11.0923 11.4833 10.1534 11.2667 9.2867 10.9778L10.1534 10.1111C10.7311 10.2556 11.3811 10.4 12.0311 10.4V11.5556Z" fill="#2C2C2C"/>
</svg>
