<svg width="30" height="24" viewBox="0 0 30 24" fill="none" xmlns="http://www.w3.org/2000/svg">
<path d="M17.8928 0.411621H17.9443C18.2857 0.411621 18.6132 0.547277 18.8547 0.788747C19.0962 1.03022 19.2318 1.35772 19.2318 1.69921C19.2318 2.0407 19.0962 2.3682 18.8547 2.60967C18.6132 2.85114 18.2857 2.9868 17.9443 2.9868C15.7262 2.9868 14.0386 2.9868 12.6944 3.09495C11.3467 3.20311 10.4918 3.40913 9.88576 3.73188C8.63053 4.4122 7.62275 5.47227 7.00674 6.76029C6.68056 7.4367 6.48485 8.27106 6.38356 9.57238C6.28055 10.884 6.28055 12.5562 6.28055 14.8841V15.073L8.20333 13.1502C8.44741 12.9227 8.77024 12.7989 9.10381 12.8048C9.43738 12.8107 9.75564 12.9458 9.99155 13.1817C10.2275 13.4176 10.3626 13.7359 10.3685 14.0695C10.3744 14.403 10.2505 14.7259 10.0231 14.9699L5.90286 19.0902C5.7795 19.2135 5.63238 19.3104 5.47043 19.3751C5.30848 19.4398 5.13507 19.471 4.96072 19.4666C4.78638 19.4623 4.61473 19.4226 4.45619 19.3499C4.29766 19.2773 4.15554 19.1731 4.03845 19.0439L0.311354 14.9236C0.0923449 14.6689 -0.0184804 14.3388 0.00252149 14.0035C0.0235233 13.6683 0.174689 13.3545 0.42377 13.1292C0.672852 12.9039 1.00013 12.7848 1.33578 12.7974C1.67143 12.8099 1.98887 12.9532 2.2204 13.1965L3.7054 14.8378V14.8292C3.7054 12.5682 3.7054 10.7947 3.81699 9.37152C3.9303 7.92255 4.16378 6.72424 4.69082 5.6358C5.5443 3.85942 6.93784 2.39856 8.67201 1.46229C9.74499 0.88717 11.024 0.645103 12.4901 0.528362C13.9493 0.411621 15.7365 0.411621 17.8928 0.411621Z" fill="white"/>
<path opacity="0.5" d="M25.038 4.53183C25.2126 4.53615 25.3846 4.57597 25.5434 4.64887C25.7022 4.72177 25.8444 4.82622 25.9616 4.95588L29.6887 9.07616C29.9077 9.33082 30.0185 9.66099 29.9975 9.99622C29.9765 10.3315 29.8253 10.6452 29.5763 10.8705C29.3272 11.0959 28.9999 11.215 28.6642 11.2024C28.3286 11.1898 28.0112 11.0466 27.7796 10.8032L26.2929 9.162V9.17058C26.2929 11.4316 26.2929 13.205 26.183 14.6282C26.0697 16.0772 25.8362 17.2755 25.3092 18.364C24.4557 20.1403 23.0622 21.6012 21.328 22.5375C20.255 23.1126 18.976 23.3547 17.5099 23.4714C16.0507 23.5881 14.2635 23.5881 12.1073 23.5881H12.0558C11.7143 23.5881 11.3868 23.4525 11.1453 23.211C10.9038 22.9695 10.7682 22.642 10.7682 22.3005C10.7682 21.9591 10.9038 21.6316 11.1453 21.3901C11.3868 21.1486 11.7143 21.013 12.0558 21.013C14.2738 21.013 15.9614 21.013 17.3056 20.9048C18.6516 20.7966 19.5082 20.5906 20.1143 20.2662C21.3692 19.5863 22.377 18.5268 22.9933 17.2395C23.3195 16.5631 23.5152 15.7287 23.6165 14.4291C23.7178 13.1158 23.7195 11.4419 23.7195 9.11564V8.9268L21.7967 10.8496C21.5526 11.077 21.2298 11.2009 20.8962 11.195C20.5626 11.1891 20.2444 11.054 20.0085 10.818C19.7726 10.5821 19.6374 10.2639 19.6316 9.9303C19.6257 9.59672 19.7495 9.27389 19.9769 9.02981L24.0972 4.90952C24.2203 4.78618 24.3671 4.68911 24.5288 4.62419C24.6905 4.55927 24.8637 4.52785 25.038 4.53183Z" fill="white"/>
</svg>
