<svg width="14" height="13" viewBox="0 0 14 13" fill="none" xmlns="http://www.w3.org/2000/svg">
<path d="M10.7347 9.35419L13.4756 12.0945L12.5701 13L9.82978 10.2591C8.81016 11.0764 7.54194 11.521 6.23516 11.5191C3.05588 11.5191 0.475586 8.93886 0.475586 5.75957C0.475586 2.58029 3.05588 0 6.23516 0C9.41445 0 11.9947 2.58029 11.9947 5.75957C11.9966 7.06636 11.552 8.33458 10.7347 9.35419ZM9.45092 8.87934C10.2629 8.04402 10.7165 6.92452 10.7148 5.75957C10.7148 3.28488 8.70986 1.27991 6.23516 1.27991C3.76046 1.27991 1.75549 3.28488 1.75549 5.75957C1.75549 8.23427 3.76046 10.2392 6.23516 10.2392C7.40011 10.2409 8.51961 9.78734 9.35493 8.97534L9.45092 8.87934Z" fill="#2C2C2C"/>
</svg>
