<svg width="52" height="52" viewBox="0 0 52 52" fill="none" xmlns="http://www.w3.org/2000/svg">
<path d="M23.92 16.575L33.02 0.975C36.9633 2.015 40.4629 3.92167 43.5188 6.695C46.5746 9.46833 48.795 12.7617 50.18 16.575H23.92ZM16.705 23.075L7.80002 7.475C10.14 5.17833 12.8596 3.35833 15.9588 2.015C19.058 0.671667 22.4051 0 26 0C26.5633 0 27.2133 0.0329336 27.95 0.0988003C28.6867 0.164667 29.3583 0.240067 29.965 0.325L16.705 23.075ZM0.845028 32.5C0.585029 31.46 0.378762 30.3983 0.226229 29.315C0.0736955 28.2317 -0.00170412 27.1267 2.92136e-05 26C2.92136e-05 22.9233 0.498362 20.02 1.49503 17.29C2.49169 14.56 3.90002 12.0683 5.72002 9.815L18.85 32.5H0.845028ZM19.045 51.025C15.1017 49.985 11.5917 48.0783 8.51502 45.305C5.43836 42.5317 3.20669 39.2383 1.82003 35.425H28.015L19.045 51.025ZM26 52C25.35 52 24.6887 51.9567 24.0162 51.87C23.3437 51.7833 22.7049 51.6967 22.1 51.61L35.295 28.925L44.2 44.525C41.86 46.8217 39.1413 48.6417 36.0438 49.985C32.9463 51.3283 29.5984 52 26 52ZM46.28 42.185L33.15 19.5H51.155C51.415 20.54 51.6212 21.6017 51.7738 22.685C51.9263 23.7683 52.0017 24.8733 52 26C52 29.0333 51.4696 31.9367 50.4088 34.71C49.348 37.4833 47.9717 39.975 46.28 42.185Z" fill="white"/>
</svg>
