<svg width="22" height="22" viewBox="0 0 22 22" fill="none" xmlns="http://www.w3.org/2000/svg">
<path d="M7.66667 1.55556V20.4444M1 8.11111C1 5.62222 1 4.37778 1.48444 3.42667C1.91054 2.59043 2.59043 1.91054 3.42667 1.48444C4.37778 1 5.62222 1 8.11111 1H13.8889C16.3778 1 17.6222 1 18.5733 1.48444C19.4096 1.91054 20.0895 2.59043 20.5156 3.42667C21 4.37778 21 5.62222 21 8.11111V13.8889C21 16.3778 21 17.6222 20.5156 18.5733C20.0895 19.4096 19.4096 20.0895 18.5733 20.5156C17.6222 21 16.3778 21 13.8889 21H8.11111C5.62222 21 4.37778 21 3.42667 20.5156C2.59043 20.0895 1.91054 19.4096 1.48444 18.5733C1 17.6222 1 16.3778 1 13.8889V8.11111Z" stroke="white" stroke-width="2" stroke-linecap="round" stroke-linejoin="round"/>
</svg>
