<svg width="22" height="23" viewBox="0 0 22 23" fill="none" xmlns="http://www.w3.org/2000/svg">
<path d="M7.66667 2.05556V20.9444V2.05556ZM1 8.61111C1 6.12222 1 4.87778 1.48444 3.92667C1.91054 3.09043 2.59043 2.41054 3.42667 1.98444C4.37778 1.5 5.62222 1.5 8.11111 1.5H13.8889C16.3778 1.5 17.6222 1.5 18.5733 1.98444C19.4096 2.41054 20.0895 3.09043 20.5156 3.92667C21 4.87778 21 6.12222 21 8.61111V14.3889C21 16.8778 21 18.1222 20.5156 19.0733C20.0895 19.9096 19.4096 20.5895 18.5733 21.0156C17.6222 21.5 16.3778 21.5 13.8889 21.5H8.11111C5.62222 21.5 4.37778 21.5 3.42667 21.0156C2.59043 20.5895 1.91054 19.9096 1.48444 19.0733C1 18.1222 1 16.8778 1 14.3889V8.61111Z" fill="white" fill-opacity="0.5"/>
<path d="M7.66667 2.05556V20.9444M1 8.61111C1 6.12222 1 4.87778 1.48444 3.92667C1.91054 3.09043 2.59043 2.41054 3.42667 1.98444C4.37778 1.5 5.62222 1.5 8.11111 1.5H13.8889C16.3778 1.5 17.6222 1.5 18.5733 1.98444C19.4096 2.41054 20.0895 3.09043 20.5156 3.92667C21 4.87778 21 6.12222 21 8.61111V14.3889C21 16.8778 21 18.1222 20.5156 19.0733C20.0895 19.9096 19.4096 20.5895 18.5733 21.0156C17.6222 21.5 16.3778 21.5 13.8889 21.5H8.11111C5.62222 21.5 4.37778 21.5 3.42667 21.0156C2.59043 20.5895 1.91054 19.9096 1.48444 19.0733C1 18.1222 1 16.8778 1 14.3889V8.61111Z" stroke="white" stroke-width="2" stroke-linecap="round" stroke-linejoin="round"/>
</svg>
