<svg width="23" height="24" viewBox="0 0 23 24" fill="none" xmlns="http://www.w3.org/2000/svg">
<path d="M11.5 0.625C14.5168 0.625 17.4101 1.82343 19.5433 3.95666C21.6766 6.08989 22.875 8.98316 22.875 12C22.875 15.0168 21.6766 17.9101 19.5433 20.0433C17.4101 22.1766 14.5168 23.375 11.5 23.375C8.48316 23.375 5.58989 22.1766 3.45666 20.0433C1.32343 17.9101 0.125 15.0168 0.125 12C0.125 8.98316 1.32343 6.08989 3.45666 3.95666C5.58989 1.82343 8.48316 0.625 11.5 0.625ZM11.5 5.5C11.2937 5.49982 11.0896 5.54266 10.9008 5.62581C10.712 5.70895 10.5426 5.83057 10.4034 5.98288C10.2643 6.13519 10.1584 6.31486 10.0926 6.51039C10.0268 6.70593 10.0025 6.91304 10.0212 7.1185L10.6144 13.6283C10.6374 13.8471 10.7406 14.0497 10.9041 14.197C11.0677 14.3442 11.2799 14.4257 11.5 14.4257C11.7201 14.4257 11.9323 14.3442 12.0959 14.197C12.2594 14.0497 12.3626 13.8471 12.3856 13.6283L12.9771 7.1185C12.9959 6.91318 12.9716 6.7062 12.9059 6.51078C12.8402 6.31535 12.7345 6.13577 12.5955 5.98348C12.4565 5.83119 12.2873 5.70955 12.0987 5.6263C11.9101 5.54306 11.7062 5.50004 11.5 5.5ZM11.5 18.5C11.8448 18.5 12.1754 18.363 12.4192 18.1192C12.663 17.8754 12.8 17.5448 12.8 17.2C12.8 16.8552 12.663 16.5246 12.4192 16.2808C12.1754 16.037 11.8448 15.9 11.5 15.9C11.1552 15.9 10.8246 16.037 10.5808 16.2808C10.337 16.5246 10.2 16.8552 10.2 17.2C10.2 17.5448 10.337 17.8754 10.5808 18.1192C10.8246 18.363 11.1552 18.5 11.5 18.5Z" fill="#FFC506"/>
</svg>
